<?xml version="1.0" encoding="UTF-8"?>
<!DOCTYPE svg PUBLIC "-//W3C//DTD SVG 1.1//EN" "http://www.w3.org/Graphics/SVG/1.1/DTD/svg11.dtd">
<!-- Creator: CorelDRAW -->
<svg xmlns="http://www.w3.org/2000/svg" xml:space="preserve" width="110.582mm" height="129.1mm" version="1.1" style="shape-rendering:geometricPrecision; text-rendering:geometricPrecision; image-rendering:optimizeQuality; fill-rule:evenodd; clip-rule:evenodd"
viewBox="0 0 11058.2 12910"
 xmlns:xlink="http://www.w3.org/1999/xlink"
 xmlns:xodm="http://www.corel.com/coreldraw/odm/2003">
 <defs>
  <style type="text/css">
   <![CDATA[
    .fil0 {fill:#33211D}
   ]]>
  </style>
 </defs>
 <g id="Capa_x0020_1">
  <metadata id="CorelCorpID_0Corel-Layer"/>
  <g id="_2700037410864">
   <path class="fil0" d="M2286.78 2942.86c74.97,-20.05 358.89,-229.24 438.79,-288.89 239.88,-179.04 190.33,-60.55 253.85,-500.81 34.43,-238.49 63.12,-421.31 97.06,-657.64 24.16,-168.36 6.03,-493.23 261.43,-493.23 336.48,0 143.46,639.67 92.65,955.17 -106.71,662.53 -10.88,731.55 -340.31,953.37 -150.35,101.3 -838.96,551.01 -874.45,634.87l-82.47 564.33c-259.8,1780.98 -455.91,3608.93 -707.52,5383.67l-293.04 2294.33c-33.05,269.57 -85.81,525.34 -85.81,803.63l1024.19 161.68c220.64,36.68 871.44,161.73 1051.13,161.73 3.38,-152.72 1609.92,-6277.84 1708.77,-6673.28l503.66 -1948.97c51.51,-149.74 75.38,-164.08 240.2,-164.08 142.33,0 180.63,326.86 215.43,458.39 48.69,183.93 95.67,354.53 145.74,554.96l711.47 2765.36c48.53,194.03 88.26,371.56 143.43,557.32 103.74,349.44 178.06,727.28 281.88,1092.69l571.91 2231.06c50.04,200.14 272.19,1001.29 274.96,1126.55 320.22,0 1826.28,-317.86 2075.32,-323.41 0,-317.2 -737.1,-5825.75 -776.7,-6150.01l-380.04 -2854.19c-24.86,-101.29 -10.06,-71.38 -108.67,-133.89 -150.23,-95.26 -950.61,-623.41 -993.68,-731.23 -52.23,-130.59 -220.51,-1357.86 -220.51,-1558.33 0,-132.71 349.27,-307.35 413.08,99.01l159.97 1079.85c26.57,193.1 17.56,168.16 165.23,266 89.6,59.36 147.17,106.34 237.63,166.65 87.89,58.59 162.7,140.29 263.87,167.34 -13.49,-162.41 -56.31,-374.29 -79.33,-540.54 -25.27,-182.38 -53.54,-370.62 -77.71,-542.21l-113.11 -803.26c-11.53,-94.54 -8.23,-216.24 -107.16,-216.24l-5713.83 0c-95.63,0 -93.68,106.3 -104.56,191.91 -59.32,467.44 -243.29,1556.13 -272.75,1910.34z"/>
   <polygon class="fil0" points="2610.18,436.32 8431.83,436.32 8431.83,5.07 2610.18,5.07 "/>
  </g>
 </g>
</svg>
