<?xml version="1.0" encoding="UTF-8"?>
<!DOCTYPE svg PUBLIC "-//W3C//DTD SVG 1.1//EN" "http://www.w3.org/Graphics/SVG/1.1/DTD/svg11.dtd">
<!-- Creator: CorelDRAW -->
<svg xmlns="http://www.w3.org/2000/svg" xml:space="preserve" width="110.582mm" height="129.1mm" version="1.1" style="shape-rendering:geometricPrecision; text-rendering:geometricPrecision; image-rendering:optimizeQuality; fill-rule:evenodd; clip-rule:evenodd"
viewBox="0 0 11058.2 12910"
 xmlns:xlink="http://www.w3.org/1999/xlink"
 xmlns:xodm="http://www.corel.com/coreldraw/odm/2003">
 <defs>
  <style type="text/css">
   <![CDATA[
    .fil0 {fill:#33211D}
   ]]>
  </style>
 </defs>
 <g id="Capa_x0020_1">
  <metadata id="CorelCorpID_0Corel-Layer"/>
  <g id="_2699975021968">
   <path class="fil0" d="M759.09 4661.15c0,165.94 148.17,266.74 297.61,416.67 222.63,223.38 303.5,205.39 337.31,350.53 -71.78,79.21 -112.59,88.02 -207,24.14 -64.24,-43.47 -153.55,-110.13 -210.02,-162.68l-350.17 -364.11c-21.34,79.9 -61.96,100.21 -106.42,184.59 -276.17,524.13 -297.08,979.22 -0.53,1509.66l69.72 89c34.59,32.69 48.64,41.39 83.4,75.34 404.86,395.48 628.09,346.73 721.02,522.36 -90.2,170.47 -222.32,91.35 -492.42,-89.59 -87.24,-58.45 -149.83,-104.56 -228,-168.82 -71.22,-58.54 -167.29,-148.02 -231.96,-191.32l-169.12 412.89c-144.12,436.99 -160.33,1151.99 247.37,1440.07 99.31,70.17 231.57,141.25 353.46,202.1 280.06,139.8 361.94,66.81 361.94,220.07 0,274.03 -744.66,-212.18 -793.65,-238.1 -243,211.22 -449.73,431.39 -449.73,793.65 0,203.13 88.5,517.11 168.9,651.2 112.15,187.04 254.6,293.25 447.31,399.25 218.54,120.2 361.51,159.73 606.95,213.16 187.22,40.75 553.58,85.6 760.96,85.6 2.54,-113.95 43.58,-291.93 68.84,-408.24 51.47,-236.95 31.19,-178.43 -88.49,-339.29 -172.04,-231.22 -155.47,-558.31 -140.03,-813.92 46.09,-763.18 280,-1107.62 397.78,-1613.15 -174.69,-260.87 -238.1,-328.88 -238.1,-740.74 0,-647.5 215.48,-1017.3 317.46,-1455.03 -986.41,-229.81 -340.01,-2062.34 -155.64,-2615.96 45.09,-135.39 121.18,-352.32 182.1,-479.27 -139.4,32.47 -453.87,248.51 -561.88,337.59 -499.39,411.93 -998.97,981.77 -998.97,1752.35z"/>
   <path class="fil0" d="M9277.6 4661.15c0,434.37 -50.89,893.88 -529.1,1005.29 24.94,107.03 69.75,223.33 102.55,320.73 146.82,435.98 309.75,1123.74 146.78,1595.27 -51.24,148.25 -99.14,173.99 -169.96,279.77 102.42,439.63 379.36,962.99 396.9,1587.37 6.59,234.5 53.37,568.85 -127.8,824.59 -119.03,168 -155.34,101.88 -104.75,332.08 22.21,101.09 71.07,310.65 73.74,430.56 437.02,0 1078.02,-124.18 1354.87,-285.35 381.31,-221.98 629.26,-549.93 629.26,-1037.4 0,-263.65 -96.59,-482.5 -257.47,-642.01 -215.67,-213.8 -109.63,-194.69 -527.15,16.12 -113.91,57.51 -458.77,249.83 -458.77,17.42 0,-86.93 72.94,-85.3 154.33,-110.22 657.03,-201.17 903.87,-519.7 903.87,-1238.98 0,-176.64 -48.08,-343 -95.43,-486.58 -29.78,-90.3 -42.16,-130.73 -80.8,-210.21 -37.18,-76.45 -55.92,-135.16 -88.32,-202.68 -93.07,62.32 -645.88,559.75 -847.77,545.44 -82.12,-5.82 -69.97,-30.24 -104.61,-95.71 67.54,-127.65 247.2,-146.17 552.07,-373.86 81.17,-60.62 270.51,-215 313.29,-295.17 150.2,-281.46 219.3,-472.92 219.3,-812.45 0,-298.75 -176.53,-760.92 -343.92,-873.01 -81.51,54.58 -209.7,281.07 -533.74,500.33 -104.26,70.55 -126.96,60.23 -207,-24.14 36.28,-155.73 95.75,-107.58 324.1,-337.28 151.87,-152.78 310.82,-261.76 310.82,-429.92 0,-500.61 -282.72,-1032.86 -522.63,-1302.76 -207.32,-233.24 -748.69,-719.73 -1038.21,-787.18 218.04,454.43 555.55,1590.52 555.55,2089.94z"/>
   <path class="fil0" d="M1949.57 4740.52c0,394.24 141.57,767.19 529.1,767.19l2513.22 0 0 -2777.77c-277.63,0 -732.86,-89 -949.18,-161.94 -148.04,-49.91 -253.92,-85.12 -389.51,-166.04 -64.19,-38.31 -99.22,-64.81 -149.94,-114.61 -28.49,-27.97 -124.08,-139.42 -151.58,-139.42 -70.75,0 -687.06,170.98 -771.05,313.6 -1.72,2.91 -36.9,82.58 -40.74,91.53 -29.89,69.6 -47.74,116.57 -76.38,188.18 -214.07,535.27 -513.94,1388.82 -513.94,1999.28z"/>
   <path class="fil0" d="M6050.09 2729.94l0 2777.77 2513.23 0c180.87,0 327.18,-99.98 396.7,-211.76 236.13,-379.64 93.7,-1004.82 5.67,-1381.09l-521.98 -1488.6c-47.67,-60.67 -264.61,-126.46 -345.31,-157.33 -585.84,-224.11 -338.63,-97.75 -693.2,122.99 -109.63,68.25 -262.15,135.47 -382.2,173.36 -230.77,72.84 -687.47,164.66 -972.91,164.66z"/>
   <polygon class="fil0" points="5203.53,12915.11 5838.45,12915.11 5838.45,2333.11 5203.53,2333.11 "/>
   <path class="fil0" d="M8192.95 8047.39l-2142.86 0 0 2328.04 2513.23 0c904.34,0 273.71,-2002.35 79.36,-2407.4 -109.62,52.59 -284.96,79.36 -449.73,79.36z"/>
   <path class="fil0" d="M2002.48 9608.24c0,324.65 53.34,767.19 476.19,767.19l2513.22 0 0 -2328.04 -2142.85 0c-164.78,0 -340.12,-26.77 -449.74,-79.36 -149.93,312.46 -396.82,1182.87 -396.82,1640.21z"/>
   <path class="fil0" d="M8378.13 10587.07l-2328.04 0 0 2328.04 2089.95 0c1085.62,0 766.72,-1815.2 634.92,-2380.95 -125.9,29.33 -239.71,52.91 -396.83,52.91z"/>
   <path class="fil0" d="M2108.3 11698.18c0,109.55 28.32,372.35 44.93,457.71 30.44,156.48 67.87,247.42 130.58,372.07 106.7,212.08 312.37,387.15 618.14,387.15l2089.94 0 0 -2328.04c-554.9,0 -2291.24,48.11 -2724.86,-52.91 -74.22,318.56 -158.73,832.73 -158.73,1164.02z"/>
   <path class="fil0" d="M6050.09 7835.75l2301.59 0c825.34,0 453.84,-1342.1 320.82,-1775.85 -36.25,-118.21 -81.38,-221.2 -109.18,-340.55l-2513.23 0 0 2116.4z"/>
   <path class="fil0" d="M2161.21 7121.47c0,381.34 158.59,714.28 529.1,714.28l2301.58 0 0 -2116.4 -2513.22 0c-93.37,400.77 -317.46,871.18 -317.46,1402.12z"/>
   <path class="fil0" d="M3510.41 507.72c415.9,621.08 1620.42,555.55 2301.59,555.55 555.15,0 1392.25,-66.75 1719.57,-555.55 -260.51,-492.33 -1716.32,-502.65 -2222.22,-502.65 -376.68,0 -706.71,45.28 -1025.44,112.12 -249.65,52.36 -649.43,156.05 -773.5,390.53z"/>
   <path class="fil0" d="M4991.89 2544.75l0 -1296.29c-519.52,0 -1075.88,-151.68 -1481.48,-423.28 0,264.54 0.07,529.1 0,793.65 -0.11,390.6 -49.44,416.9 205.81,587.84 475.02,318.11 1163.27,284.15 1275.67,338.08z"/>
   <path class="fil0" d="M6050.09 1248.46l0 1296.29c95.78,-45.96 812.32,-28.41 1259.77,-327.53 261.14,-174.56 221.96,-174.7 221.71,-571.94 -0.17,-273.36 0,-546.74 0,-820.1 -207.79,139.14 -361.54,229.17 -650.37,302 -214.54,54.09 -585.87,121.28 -831.11,121.28z"/>
   <path class="fil0" d="M124.17 10983.9c0,679.81 798.09,978.83 1428.57,978.83l370.37 0 0 -449.73c0,-146.87 26.46,-156.88 26.46,-291.01 -367.83,0 -704.15,-56.83 -1000.06,-137.51 -146.85,-40.04 -272.8,-88.32 -402.37,-153.19 -270.94,-135.64 -235.89,-200.78 -370.06,-211.94 -19.92,85.48 -52.91,164.02 -52.91,264.55z"/>
   <path class="fil0" d="M9092.42 11221.99c0,134.13 26.45,144.14 26.45,291.01l0 449.73c455.58,0 965.4,-1.46 1328.73,-232.12 452.48,-287.24 517.06,-583.05 417.3,-1011.26 -111.32,25.93 -88.87,33.38 -170.05,94.5 -154.2,116.11 -418.53,220.51 -602.38,270.63 -295.91,80.68 -632.23,137.51 -1000.05,137.51z"/>
   <path class="fil0" d="M5203.53 2121.47l634.92 0 0 -873.01c-453.96,37.77 -180.96,37.77 -634.92,0l0 873.01z"/>
  </g>
 </g>
</svg>
